# xmcd
#
# Track frame offsets:
#	150
#	15007
#	31170
#	48042
#	60007
#	78672
#	91587
#	104742
#	120572
#	130552
#	147467
#	162297
#
# Disc length: 2388 seconds
#
# Revision: 0
# Processed by: cddbd v1.4PL0 Copyright (c) Steve Scherf et al.
# Submitted via: dBpowerAMP V4.0
#
DISCID=8209520c
DTITLE=David Frizzell - You've Just Been Robbed By Jesse James
DYEAR=2001
DGENRE=Country
TTITLE0=One Memory At A Time
TTITLE1=I Ain't Going If There Ain't No Hank
TTITLE2=She's Not In My Bed
TTITLE3=Back In Over My Head Again
TTITLE4=Baby Don't Love Here Anymore
TTITLE5=When Can We Do This Again?
TTITLE6=You've Just Been Robbed By Jesse James
TTITLE7=A Love That Might Have Been
TTITLE8=The Good Book
TTITLE9=Could It Be We Fell In Love Tonight
TTITLE10=Hiding The Pain
TTITLE11=I'm Gonna Hire A Wino To Decorate Our Home
EXTD=
EXTT0=
EXTT1=
EXTT2=
EXTT3=
EXTT4=
EXTT5=
EXTT6=
EXTT7=
EXTT8=
EXTT9=
EXTT10=
EXTT11=
PLAYORDER=
